<?xml version="1.0" encoding="utf-8"?>
<!-- Generator: Adobe Illustrator 16.0.3, SVG Export Plug-In . SVG Version: 6.00 Build 0)  -->
<!DOCTYPE svg PUBLIC "-//W3C//DTD SVG 1.1//EN" "http://www.w3.org/Graphics/SVG/1.1/DTD/svg11.dtd">
<svg version="1.1" id="Layer_1" xmlns="http://www.w3.org/2000/svg" xmlns:xlink="http://www.w3.org/1999/xlink" x="0px" y="0px"
	 width="64px" height="64px" viewBox="0 0 64 64" enable-background="new 0 0 64 64" xml:space="preserve">
<g>
	<path id="XMLID_3802_" opacity="0.08" fill="#232321" d="M59.544,49.925c0,3.644-4.745,6.859-11.981,8.775
		C43.135,59.874,32,64,32,64s-11.004-4.11-15.399-5.258c-7.327-1.91-12.145-5.146-12.145-8.817c0-5.872,12.332-10.634,27.544-10.634
		C47.213,39.291,59.544,44.053,59.544,49.925z"/>
	<path id="XMLID_3809_" fill="#DEDF00" d="M59.544,27.544c0,9.437-4.745,17.765-11.981,22.729C43.135,53.312,32,64,32,64
		S20.996,53.354,16.601,50.385c-7.327-4.95-12.145-13.334-12.145-22.84C4.456,12.331,16.788,0,32,0
		C47.213,0,59.544,12.331,59.544,27.544z"/>
	<path id="XMLID_3810_" opacity="0.06" d="M32,0c-0.136,0-0.27,0.008-0.404,0.009V63.61C31.853,63.856,32,64,32,64
		s11.135-10.688,15.562-13.727c7.236-4.964,11.981-13.292,11.981-22.729C59.544,12.331,47.213,0,32,0z"/>
	<path id="XMLID_3811_" fill="#FFFFFF" d="M32.166,47.527c-11.119,0-20.164-9.056-20.164-20.186c0-11.13,9.045-20.186,20.164-20.186
		c11.142,0,20.206,9.056,20.206,20.186C52.372,38.472,43.308,47.527,32.166,47.527z M32.187,9.735
		c-9.708,0-17.606,7.897-17.606,17.607c0,9.708,7.898,17.607,17.606,17.607s17.607-7.899,17.607-17.607
		C49.794,17.632,41.895,9.735,32.187,9.735z M32.187,38.079c-4.023,0-7.622-2.212-9.469-5.729h18.938
		C39.81,35.867,36.211,38.079,32.187,38.079z M39.535,24.432c-1.289,0-2.339-1.049-2.339-2.339c0-1.289,1.05-2.339,2.339-2.339
		c1.29,0,2.339,1.05,2.339,2.339C41.874,23.382,40.825,24.432,39.535,24.432z M24.839,24.432c-1.29,0-2.339-1.049-2.339-2.339
		c0-1.289,1.049-2.339,2.339-2.339c1.289,0,2.339,1.05,2.339,2.339C27.178,23.382,26.128,24.432,24.839,24.432z"/>
</g>
</svg>
